<svg xmlns="http://www.w3.org/2000/svg" xmlns:xlink="http://www.w3.org/1999/xlink" viewBox="0 0 500 500"><defs><style>.cls-1{isolation:isolate;}.cls-2{fill:#f2f2f2;}.cls-3{opacity:0.42;}.cls-10,.cls-13,.cls-14,.cls-15,.cls-16,.cls-17,.cls-18,.cls-19,.cls-20,.cls-21,.cls-22,.cls-23,.cls-24,.cls-25,.cls-26,.cls-4,.cls-5,.cls-6,.cls-7,.cls-8,.cls-9{fill-rule:evenodd;}.cls-4{opacity:0.32;fill:url(#Sky_2);}.cls-5{opacity:0.83;mix-blend-mode:hard-light;fill:url(#Degradado_sin_nombre_23);}.cls-6{fill:#ec7446;}.cls-7{fill:#ee835d;}.cls-8{fill:#3b3838;}.cls-9{fill:#3e3a39;}.cls-10{fill:#373332;}.cls-11{fill:#fbb03b;}.cls-12{fill:#1e4f91;}.cls-13{fill:#231916;}.cls-14{fill:#0069a2;}.cls-15{fill:#ed7d52;}.cls-16{fill:#fccf00;}.cls-17{fill:#005ea3;}.cls-18{fill:#ebc300;}.cls-19{fill:#434140;}.cls-20{fill:#3b3735;}.cls-21{fill:#f08f6d;}.cls-22{fill:#eeeeef;}.cls-23{fill:#b2b2b2;}.cls-24{fill:#e50013;}.cls-25{fill:#e7e5e4;}.cls-26{fill:#fff;}</style><linearGradient id="Sky_2" x1="-99.17" y1="268.85" x2="440.3" y2="240.75" gradientUnits="userSpaceOnUse"><stop offset="0" stop-color="#08fcff"/><stop offset="0.13" stop-color="#07f3ff"/><stop offset="0.34" stop-color="#04d9ff"/><stop offset="0.57" stop-color="#00b8ff"/><stop offset="0.87" stop-color="#0091ff"/><stop offset="0.99" stop-color="#0077eb"/></linearGradient><linearGradient id="Degradado_sin_nombre_23" x1="-6.68" y1="570.42" x2="375.87" y2="124.63" gradientUnits="userSpaceOnUse"><stop offset="0" stop-color="#0092ff"/><stop offset="0.5" stop-color="#007dff"/><stop offset="0.51" stop-color="#007cff"/><stop offset="0.66" stop-color="#006bf6"/><stop offset="0.83" stop-color="#005fef"/><stop offset="1" stop-color="#005bed"/></linearGradient></defs><g class="cls-1"><g id="BACKGROUND"><rect class="cls-2" width="500" height="500"/><g class="cls-3"><path class="cls-4" d="M265.81,151.13a64.81,64.81,0,1,0-118.9,48h0c13.85,23.61,10.7,41.23-18.45,58.32h0a80,80,0,1,0,115.69,96.13c13.72-37.41,34.46-45.94,68.67-33.54a72,72,0,0,0,9.94,2.88,73,73,0,1,0-3.43-142C288.1,188.7,273.05,178.77,265.81,151.13Z"/><path class="cls-5" d="M195.56,157.4a64.81,64.81,0,1,0-18.87,126.82h0c27.38,0,41,11.66,40.93,45.46h0a80,80,0,1,0,141.49-51c-25.29-30.79-22.13-53,5.9-76.19a74,74,0,0,0,7.52-7.12,73,73,0,1,0-124.12-69C239.25,157.22,223.05,165.16,195.56,157.4Z"/></g></g><g id="OBJECTS"><path class="cls-6" d="M382.33,118c.57-.2,11,0,10.66.61s-1.66,1.11-3,1.48-8.61.18-8.61.18Z"/><path class="cls-6" d="M382.53,119.56c.29,0,5.09,0,5.09,0s2.27,4.62,1.66,5-2.57-.83-3.18-1.76-.77-1.13-.77-1.13a45.19,45.19,0,0,1-4.68.58C380.85,122,382.53,119.56,382.53,119.56Z"/><path class="cls-7" d="M168.64,143.79c-.17-.35-3-8.6-2.75-10.06s11-8.5,11.27-8.26,1.29,8.26,1.29,8.26Z"/><path class="cls-7" d="M248.58,266.6c-4.54,3.45-15.14,20.75-15.14,20.75q11.35,30.81,22.7,61.62c-14.85,11.84-29,31.09-39.6,54.81-4.68,3-6.59,4.72-5.25,8.24,2.61,6.87,14.42,15,19.78,14.13L223,410.47c16.95-15.61,28.39-25.16,45.34-40.77,6.6-6.08,10.65-10.65,10.94-19.78.7-22-1.85-47.26-1.15-69.27C267.17,274.88,259.5,272.36,248.58,266.6Z"/><path class="cls-8" d="M236.15,289c1.3,6.7,12.24,44.22,12.24,44.22L281,329l-.55-60.53-36.19-2Z"/><path class="cls-7" d="M233.71,282.17c-.81,1.13-11.39,10.9-11.39,10.9l-16.66,53.85c-21.37-.86-61.77,4.39-77.43,15a6.86,6.86,0,0,0-6.48.45c-10.81,21-1.25,24.73-1.22,24.41.08-.81,3.41-8.18,5.11-12.16a30.41,30.41,0,0,1,2.84-5.51c1.45-1.91,47.7.48,72.34-.13,10.35-.25,13.92-4.38,19.75-12.08,13.71-18.1,47.46-67.43,45-68C262.65,288.25,233.71,282.17,233.71,282.17Z"/><path class="cls-9" d="M240,256.92l-11.4,10.91L211.1,320.08,240.51,331c17.55-18.16,30.5-45.44,35.72-66.38Z"/><path class="cls-10" d="M226.16,275.06l-.73,2.17c9,3.16,28.61,10.09,29.73,11.08,1.46,1.3-8.75,27.57-24.64,31.46-8.34,2-13.27,2-16.08,1.55L240.51,331c16.24-16.81,28.55-41.44,34.43-61.61Z"/><path class="cls-7" d="M202.12,183.32c-10.65,5.28-26.59,11-26.59,11,.5-17.66.58-36.29,1.08-54l-7.35-1.08c-2.39,11.7-14.39,58.74-12,67.63,1.41,5.21,7.85,4.47,14.15,4.09,12.26-.74,33.28-1.66,33.28-2.43C204.72,207.56,202.12,183.32,202.12,183.32Z"/><rect class="cls-11" x="183.27" y="97.18" width="46.32" height="1.37" transform="translate(-8.46 175.42) rotate(-45.21)"/><rect class="cls-12" x="200.03" y="97.3" width="12.58" height="1.37" transform="translate(-8.58 175.37) rotate(-45.21)"/><path class="cls-13" d="M236.77,83.21l-.86-.85-.61.61-.42-.08.77-.79-1.85-1.83L232,82.06l-.37-.14,1.89-1.9-1.85-1.84-2.56,2.59-.33-.19,2.64-2.65L229.6,76.1l-2.81,2.83-.26-.25,2.82-2.84L227.5,74l-2.81,2.84-.26-.26,2.82-2.83-1.85-1.83-2.82,2.83-.25-.25,2.81-2.84-1.84-1.83-2.67,2.69-.19-.32,2.6-2.62-1.85-1.84-1.95,2c-.05-.12-.09-.24-.14-.37l1.84-1.85-1.85-1.83-.86.86-.09-.41.7-.71-1-1c0-.19-.05-.38-.07-.57l1.32,1.31,1.83-1.85-1.84-1.83-1.39,1.4,0-.48,1.16-1.18-1.14-1.13,0-.47L219.08,61l1.83-1.85-1.85-1.83-1.23,1.24c0-.2,0-.4.08-.59l.9-.9-.61-.6c0-.14.07-.27.1-.41l.76.75,1.83-1.84-1.7-1.69.15-.36,1.81,1.79L223,52.83,221.13,51l-1.73,1.75c.13-.31.27-.62.41-.93l1.07-1.07-.34-.33c.07-.11.13-.22.19-.33l.4.4L223,48.65l-.76-.75.22-.29.79.78,1.83-1.85-.89-.88h0c.08-.08.17-.16.25-.25l.89.89,1.84-1.85-.84-.83.26-.24.83.82,1.83-1.85-.67-.67.27-.23.66.65,1.83-1.85-.41-.4.3-.22.36.36,1.84-1.84h0l1.34-.83-.83.84L235.75,40l1.83-1.85L236,36.57l.33-.18,1.49,1.48L239.67,36l-.85-.84.36-.15.74.74,1.64-1.65.74-.24,0,0,1.84,1.83L246,33.9l-.73-.72.43-.07.55.54.7-.71.55,0-1,1,1.85,1.83,1.83-1.84-1-1h.53l.78.77.66-.66.45.05-.86.87,1.85,1.83,2-2,.37.12L252.74,36l1.85,1.84L257.4,35h0l.25.24-2.82,2.84,1.85,1.83,2.81-2.83.26.25L257,40.15,258.79,42l2.82-2.84.25.26-2.81,2.83,1.84,1.83,2.82-2.83.25.25-2.81,2.84L263,46.15l2.81-2.83.11.11.1.18-2.77,2.79,1.85,1.84,2-2.06c.05.12.09.25.13.38l-1.92,1.93,1.85,1.83.75-.75L268,50l-.56.56.65.63c0,.18,0,.35,0,.53l-.91-.91-1.83,1.85,1.85,1.83.83-.84c0,.19,0,.38-.05.56l-.53.53.41.41c0,.15-.05.29-.07.44l-.59-.59-1.84,1.85,1.73,1.71c-.11.37-.23.74-.35,1.11l-1.36,1.36.61.61c-.05.12-.1.23-.16.35l-.7-.7-1.84,1.85,1.35,1.34-.17.33-1.43-1.42-1.83,1.85,1.91,1.9-.2.31-2-2-1.83,1.85,2.33,2.31-.21.3-2.37-2.36-1.84,1.85,2.62,2.6-.23.28-2.64-2.62L255,71.56l2.79,2.77-.24.27-2.81-2.78-1.83,1.84,2.86,2.84c-.09.08-.17.17-.25.25h0l-2.86-2.84-1.84,1.85,2.76,2.73-.29.22L250.54,76l-1.83,1.85,2.36,2.35-.32.18-2.29-2.28L246.62,80l1.67,1.66-.36.15-1.56-1.56-1.83,1.85.62.62-.41.1-.47-.46-.7.7-.6.1L244,82.07l-1.85-1.83-1.83,1.85,1.22,1.21-.47,0-1-1-1,1h-.49l1.27-1.28L238,80.26l-1.83,1.84,1.18,1.18-.57-.07Zm13.62-49.07h0L248.55,36l1.85,1.83L252.24,36l-1.85-1.83Zm2.1,2.09h0l-1.83,1.84,1.84,1.84,1.84-1.85-1.85-1.83Zm2.1,2.08h0l-1.83,1.85L254.6,42l1.84-1.84-1.85-1.84Zm2.1,2.09h0l-1.83,1.85,1.85,1.83,1.83-1.85-1.85-1.83Zm2.11,2.09h0L257,44.33l1.85,1.84,1.83-1.85-1.84-1.83Zm2.1,2.08h0l-1.84,1.85,1.85,1.83,1.83-1.84-1.84-1.84Zm2.1,2.09h0l-1.83,1.85L263,50.34l1.84-1.85L263,46.66Zm2.1,2.08h0l-1.83,1.85,1.84,1.83L267,50.58l-1.85-1.84ZM246.2,34.16h0L244.37,36l1.84,1.84L248.05,36l-1.85-1.83Zm2.1,2.08h0l-1.83,1.85,1.85,1.83,1.83-1.84-1.85-1.84Zm2.1,2.09h0l-1.83,1.85L250.42,42l1.83-1.85-1.85-1.83Zm2.11,2.09h0l-1.84,1.84,1.85,1.84,1.83-1.85-1.84-1.83Zm2.1,2.08h0l-1.84,1.85,1.85,1.83,1.83-1.85-1.84-1.83Zm2.1,2.09h0l-1.83,1.84,1.84,1.84,1.84-1.85-1.85-1.83Zm2.1,2.08h0L257,48.52l1.84,1.83,1.84-1.84-1.85-1.84Zm2.1,2.09h0l-1.83,1.85,1.85,1.83,1.83-1.85-1.85-1.83Zm2.1,2.09h0l-1.83,1.84L263,54.53l1.83-1.85L263,50.85Zm2.11,2.08h0l-1.84,1.85,1.85,1.83L267,54.77l-1.84-1.84ZM242,34.17h0L240.18,36,242,37.85,243.86,36,242,34.17Zm2.1,2.09h0l-1.83,1.84,1.85,1.84L246,38.09l-1.85-1.83Zm2.11,2.08h0l-1.84,1.85L246.23,42l1.83-1.84-1.84-1.84Zm2.1,2.09h0l-1.84,1.85,1.85,1.83,1.83-1.85-1.84-1.83Zm2.1,2.09h0l-1.83,1.84,1.84,1.84,1.84-1.85-1.85-1.83Zm2.1,2.08h0l-1.83,1.85,1.84,1.83,1.84-1.84-1.85-1.84Zm2.1,2.09h0l-1.83,1.85,1.85,1.83,1.83-1.85-1.85-1.83Zm2.1,2.09h0l-1.83,1.84,1.85,1.84,1.83-1.85-1.85-1.83Zm2.11,2.08h0L257,52.71l1.85,1.83,1.83-1.84-1.84-1.84Zm2.1,2.09h0l-1.84,1.85,1.85,1.83,1.83-1.85L260.93,53ZM263,55h0l-1.83,1.84L263,58.72l1.84-1.85L263,55Zm2.1,2.08h0L263.3,59l1.84,1.83L267,59l-1.85-1.83Zm-25.2-20.85h0l-1.84,1.85L239.94,40l1.83-1.84-1.84-1.84Zm2.1,2.09h0l-1.84,1.85L242,42l1.83-1.85L242,38.36Zm2.1,2.09h0l-1.83,1.84,1.84,1.84L246,42.28l-1.85-1.83Zm2.1,2.08h0l-1.83,1.85,1.84,1.83,1.84-1.84-1.85-1.84Zm2.1,2.09h0l-1.83,1.85,1.85,1.83,1.83-1.85-1.85-1.83Zm2.1,2.08h0l-1.83,1.85,1.85,1.84,1.83-1.85-1.85-1.84Zm2.11,2.09h0l-1.84,1.85,1.85,1.83,1.83-1.85-1.84-1.83Zm2.1,2.09h0l-1.84,1.84,1.85,1.84,1.83-1.85-1.84-1.83Zm2.1,2.08h0l-1.83,1.85,1.84,1.83,1.84-1.84L256.74,53Zm2.1,2.09h0L257,56.9l1.84,1.83,1.84-1.85-1.85-1.83Zm2.1,2.09h0L259.11,59,261,60.82,262.79,59l-1.85-1.83Zm2.1,2.08h0l-1.83,1.85,1.85,1.83,1.83-1.84L263,59.22Zm-25.2-20.85h0L236,40.22l1.84,1.83,1.84-1.84-1.85-1.84Zm2.1,2.09h0l-1.83,1.85L240,44.14l1.84-1.85-1.85-1.83Zm2.1,2.09h0l-1.83,1.84,1.85,1.84,1.83-1.85L242,42.55Zm2.1,2.08h0l-1.83,1.85,1.85,1.83L246,46.47l-1.85-1.84Zm2.11,2.09h0l-1.84,1.85,1.85,1.83,1.83-1.85-1.84-1.83Zm2.1,2.09h0l-1.84,1.84,1.85,1.84,1.83-1.85-1.84-1.83Zm2.1,2.08h0l-1.83,1.85,1.84,1.83,1.84-1.84-1.85-1.84Zm2.1,2.09h0l-1.83,1.85,1.84,1.83,1.84-1.85L252.55,53Zm2.1,2.09h0l-1.83,1.84,1.85,1.84,1.83-1.85-1.85-1.83Zm2.1,2.08h0L254.92,59l1.85,1.83L258.6,59l-1.85-1.84Zm2.11,2.09h0L257,61.08l1.85,1.84,1.83-1.85-1.84-1.83Zm2.1,2.08h0l-1.84,1.85L261,65l1.84-1.84L261,61.32ZM233.65,38.39h0l-1.83,1.85,1.85,1.83,1.83-1.85-1.85-1.83Zm2.1,2.09h0l-1.83,1.84,1.85,1.84,1.83-1.85-1.85-1.83Zm2.1,2.08h0L236,44.41l1.85,1.83,1.83-1.84-1.85-1.84ZM240,44.65h0l-1.84,1.85L240,48.33l1.83-1.85L240,44.65Zm2.1,2.09h0l-1.83,1.84,1.84,1.84,1.84-1.85-1.85-1.83Zm2.1,2.08h0l-1.83,1.85,1.84,1.83L246,50.65l-1.85-1.83Zm2.1,2.09h0l-1.83,1.85,1.84,1.83,1.84-1.85-1.85-1.83Zm2.1,2.08h0l-1.83,1.85,1.85,1.84,1.83-1.85L248.36,53Zm2.11,2.09h0l-1.84,1.85,1.85,1.83,1.83-1.85-1.84-1.83Zm2.1,2.09h0L250.73,59l1.85,1.84L254.41,59l-1.84-1.83Zm2.1,2.08h0l-1.84,1.85,1.85,1.83,1.83-1.84-1.84-1.84Zm2.1,2.09h0l-1.83,1.85L256.78,65l1.84-1.85-1.85-1.83Zm2.1,2.09h0L257,65.27l1.85,1.84,1.83-1.85-1.85-1.83Zm-27.3-22.94h0l-1.84,1.85,1.85,1.83,1.83-1.85-1.84-1.83Zm2.1,2.09h0l-1.84,1.84,1.85,1.84,1.83-1.85-1.84-1.83Zm2.1,2.08h0l-1.83,1.85,1.84,1.84,1.84-1.85-1.85-1.84Zm2.1,2.09h0L236,48.6l1.84,1.83,1.84-1.85-1.85-1.83Zm2.1,2.09h0l-1.83,1.84L240,52.52l1.83-1.85L240,48.84Zm2.1,2.08h0l-1.83,1.85,1.85,1.83,1.83-1.84-1.85-1.84ZM244.18,53h0l-1.84,1.85,1.85,1.83L246,54.84,244.18,53Zm2.1,2.09h0l-1.84,1.84,1.85,1.84,1.83-1.85-1.84-1.83Zm2.1,2.08h0L246.55,59l1.84,1.83L250.23,59l-1.85-1.84Zm2.1,2.09h0l-1.83,1.85L250.49,63l1.84-1.85-1.85-1.83Zm2.1,2.09h0l-1.83,1.84L252.6,65l1.83-1.84-1.85-1.83Zm2.1,2.08h0l-1.83,1.85,1.85,1.83,1.83-1.84-1.85-1.84Zm2.11,2.09h0L255,67.38l1.85,1.83,1.83-1.85-1.84-1.83ZM229.48,42.59h0l-1.83,1.85,1.84,1.83,1.84-1.84-1.85-1.84Zm2.1,2.09h0l-1.83,1.85,1.84,1.83,1.84-1.85-1.85-1.83Zm2.1,2.09h0l-1.83,1.84,1.85,1.84,1.83-1.85-1.85-1.83Zm2.1,2.08h0L234,50.7l1.85,1.83,1.83-1.84-1.85-1.84Zm2.11,2.09h0l-1.84,1.85,1.85,1.83,1.83-1.85-1.84-1.83ZM240,53h0l-1.84,1.85L240,56.71l1.83-1.85L240,53Zm2.1,2.09h0L240.26,57l1.84,1.83,1.84-1.85-1.85-1.83Zm2.1,2.09h0L242.36,59l1.84,1.84L246,59l-1.85-1.83Zm2.1,2.08h0l-1.83,1.85L246.31,63l1.83-1.84-1.85-1.84Zm2.1,2.09h0l-1.83,1.85,1.85,1.83,1.83-1.85-1.85-1.83Zm2.11,2.09h0l-1.84,1.84,1.85,1.84,1.83-1.85-1.84-1.83Zm2.1,2.08h0l-1.84,1.85,1.85,1.83,1.83-1.84-1.84-1.84Zm2.1,2.09h0l-1.83,1.85,1.84,1.83,1.84-1.85-1.85-1.83ZM227.39,44.69h0l-1.83,1.85,1.85,1.84,1.83-1.85-1.85-1.84Zm2.1,2.09h0l-1.83,1.85,1.85,1.83,1.83-1.84-1.85-1.84Zm2.11,2.09h0l-1.84,1.85,1.85,1.83,1.83-1.85-1.84-1.83ZM233.7,51h0l-1.84,1.85,1.85,1.83,1.83-1.84L233.7,51ZM235.8,53h0L234,54.89l1.84,1.83,1.84-1.85L235.8,53Zm2.1,2.09h0L236.07,57l1.84,1.84L239.75,57l-1.85-1.83Zm2.1,2.08h0l-1.83,1.85L240,60.89l1.83-1.84L240,57.21Zm2.1,2.09h0l-1.83,1.85L242.12,63,244,61.13,242.1,59.3Zm2.11,2.09h0l-1.84,1.84,1.85,1.84,1.83-1.85-1.84-1.83Zm2.1,2.08h0l-1.84,1.85,1.85,1.83,1.83-1.84-1.84-1.84Zm2.1,2.09h0l-1.83,1.85,1.84,1.83,1.84-1.85-1.85-1.83Zm2.1,2.08h0l-1.83,1.85,1.84,1.84,1.84-1.85-1.85-1.84Zm2.1,2.09h0l-1.83,1.85,1.85,1.83,1.83-1.85-1.85-1.83ZM225.31,46.8h0l-1.84,1.84,1.85,1.84,1.83-1.85-1.84-1.83Zm2.1,2.08h0l-1.84,1.85,1.85,1.83,1.83-1.84-1.84-1.84Zm2.1,2.09h0l-1.83,1.85,1.84,1.83,1.84-1.85L229.51,51Zm2.1,2.09h0l-1.83,1.84,1.84,1.84,1.84-1.85-1.85-1.83Zm2.1,2.08h0L231.88,57l1.85,1.83L235.56,57l-1.85-1.84Zm2.1,2.09h0L234,59.08l1.85,1.83,1.83-1.85-1.85-1.83Zm2.11,2.08h0l-1.84,1.85L237.93,63l1.83-1.84-1.84-1.84ZM240,61.4h0l-1.84,1.85L240,65.08l1.83-1.85L240,61.4Zm2.1,2.09h0l-1.83,1.84,1.84,1.84L244,65.32l-1.85-1.83Zm2.1,2.08h0l-1.83,1.85,1.85,1.83,1.83-1.84-1.85-1.84Zm2.1,2.09h0l-1.83,1.85,1.85,1.83,1.83-1.85-1.85-1.83Zm2.11,2.09h0l-1.84,1.84,1.85,1.84,1.83-1.85-1.84-1.83Zm2.1,2.08h0l-1.84,1.85,1.85,1.83,1.83-1.84-1.84-1.84ZM223.22,48.9h0l-1.83,1.85,1.84,1.83,1.84-1.85-1.85-1.83Zm2.1,2.08h0l-1.83,1.85,1.84,1.84,1.84-1.85L225.32,51Zm2.1,2.09h0l-1.83,1.85,1.85,1.83,1.83-1.85-1.85-1.83Zm2.1,2.09h0L227.69,57l1.85,1.84L231.37,57l-1.85-1.83Zm2.11,2.08h0l-1.84,1.85,1.85,1.83,1.83-1.84-1.84-1.84Zm2.1,2.09h0l-1.84,1.85L233.74,63l1.83-1.85-1.84-1.83Zm2.1,2.09h0L234,63.26l1.84,1.84,1.84-1.85-1.85-1.83Zm2.1,2.08h0l-1.83,1.85L238,67.18l1.83-1.84-1.85-1.84Zm2.1,2.09h0l-1.83,1.85,1.85,1.83,1.83-1.85L240,65.59Zm2.11,2.09h0l-1.84,1.84,1.85,1.84L244,69.51l-1.84-1.83Zm2.1,2.08h0l-1.84,1.85,1.85,1.83,1.83-1.84-1.84-1.84Zm2.1,2.09h0l-1.83,1.85,1.84,1.83,1.84-1.85-1.85-1.83Zm2.1,2.08h0l-1.83,1.85,1.84,1.83,1.84-1.84-1.85-1.84Zm-25.2-20.84h0l-1.84,1.84,1.85,1.84,1.83-1.85-1.84-1.83Zm2.1,2.08h0L223.5,57l1.85,1.83L227.18,57l-1.84-1.84Zm2.1,2.09h0l-1.83,1.85,1.84,1.83,1.84-1.85-1.85-1.83Zm2.1,2.09h0l-1.83,1.84L229.55,63l1.84-1.85-1.85-1.83Zm2.1,2.08h0l-1.83,1.85,1.85,1.83,1.83-1.84-1.85-1.84Zm2.1,2.09h0l-1.83,1.85,1.85,1.83,1.83-1.85-1.85-1.83Zm2.11,2.08h0L234,67.45l1.85,1.83,1.83-1.84-1.84-1.84Zm2.1,2.09h0l-1.84,1.85L238,71.37l1.83-1.85L238,67.69Zm2.1,2.09h0l-1.84,1.84,1.85,1.84,1.84-1.85-1.85-1.83Zm2.1,2.08h0l-1.83,1.85,1.84,1.83L244,73.7l-1.85-1.84Zm2.1,2.09h0l-1.83,1.85,1.85,1.83,1.83-1.85L244.25,74Zm2.1,2.09h0l-1.83,1.84,1.85,1.84,1.83-1.85L246.35,76Zm-25.2-20.85h0L219.32,57l1.84,1.83L223,57l-1.85-1.83Zm2.1,2.08h0l-1.83,1.85L223.26,61l1.84-1.84-1.85-1.84Zm2.1,2.09h0l-1.83,1.85L225.37,63l1.83-1.85-1.85-1.83Zm2.1,2.09h0l-1.83,1.84,1.85,1.84,1.83-1.85-1.85-1.83Zm2.11,2.08h0l-1.84,1.85,1.85,1.83,1.83-1.84-1.84-1.84Zm2.1,2.09h0l-1.84,1.85,1.85,1.83,1.83-1.85-1.84-1.83Zm2.1,2.09h0l-1.83,1.84,1.84,1.84,1.84-1.85-1.85-1.83Zm2.1,2.08h0L234,71.64l1.84,1.83,1.84-1.84-1.85-1.84Zm2.1,2.09h0l-1.83,1.85L238,75.56l1.83-1.85L238,71.88Zm2.1,2.09h0l-1.83,1.84,1.85,1.84,1.83-1.85L240.06,74Zm2.11,2.08h0l-1.84,1.85,1.85,1.83L244,77.89l-1.84-1.84Zm2.1,2.09h0L242.43,80l1.85,1.84L246.11,80l-1.84-1.83ZM221.16,59.38h0l-1.83,1.84,1.85,1.84L223,61.21l-1.85-1.83Zm2.11,2.08h0l-1.84,1.85,1.85,1.83,1.83-1.84-1.84-1.84Zm2.1,2.09h0l-1.84,1.85,1.85,1.83,1.83-1.85-1.84-1.83Zm2.1,2.08h0l-1.83,1.85,1.84,1.84,1.84-1.85-1.85-1.84Zm2.1,2.09h0l-1.83,1.85,1.84,1.83,1.84-1.84-1.85-1.84Zm2.1,2.09h0l-1.83,1.84,1.85,1.84,1.83-1.85-1.85-1.83Zm2.1,2.08h0l-1.83,1.85,1.85,1.83,1.83-1.84-1.85-1.84ZM235.88,74h0L234,75.83l1.85,1.83,1.83-1.85L235.88,74Zm2.1,2.09h0l-1.84,1.84L238,79.75l1.83-1.85L238,76.07Zm2.1,2.08h0L238.25,80l1.84,1.83L241.93,80l-1.85-1.84Zm-18.9-14.59h0l-1.83,1.85,1.84,1.84L223,65.4l-1.85-1.84Zm2.1,2.09h0l-1.83,1.85,1.84,1.83,1.84-1.85-1.85-1.83Zm2.1,2.09h0l-1.83,1.84,1.85,1.84,1.83-1.85-1.85-1.83Zm2.1,2.08h0l-1.83,1.85,1.85,1.83,1.83-1.84-1.85-1.84Zm2.11,2.09h0l-1.84,1.85,1.85,1.83,1.83-1.85-1.84-1.83Zm2.1,2.09h0l-1.84,1.84,1.85,1.84,1.83-1.85L231.69,74Zm2.1,2.08h0L232,77.93l1.84,1.83,1.84-1.84-1.85-1.84Zm2.1,2.09h0L234.06,80l1.84,1.83L237.74,80Z"/><rect class="cls-12" x="220.2" y="78.82" width="6.94" height="3.36" rx="1.02" transform="translate(8.95 182.51) rotate(-45.2)"/><path class="cls-13" d="M254.22,75.71a52.44,52.44,0,0,0,8.71-11.45c4.65-8.46,5.64-17.29-1.72-24.6A16.75,16.75,0,0,0,249,34.38c-8.76,0-17.89,6.57-23.81,12.54a20.43,20.43,0,1,0,29,28.79Zm1.69,1.67a22.81,22.81,0,1,1-32.38-32.14c9-9,26.11-20.42,39.36-7.27s2,30.38-7,39.41Z"/><path class="cls-13" d="M163.4,145.44,184.65,124l5.95-9.26-1-1-9.22,6-21.25,21.4L156,143.35a.88.88,0,0,0-.1,1.19l4.22,4.2c.13.13.72.62,1.15,0Z"/><path class="cls-7" d="M270.43,166.92c3-1.95,10.06-9.95,15.41-12s22-7,22-7l63.57-26.37,1.4,6.15-60,34.49s-22.92,15.78-23.57,14.49S270.43,166.92,270.43,166.92Z"/><path class="cls-14" d="M220.09,174.57c-4.54,1.62-37.22,15.61-37.22,15.61l5.63,24.75,30.1-6.21c12.65,27.56,6.21,63.72,6.21,63.72,16.67,10.35,49.63,8.52,55.64-4,1.61-26.67,6.24-52.27-1.75-82.19l23.24-16.54L289.4,152.56Z"/><path class="cls-7" d="M245.39,137.87,242,142.41s10.27,10.51,10.34,12.44-9.52,9.61-9.52,9.61l6.8,16.28s-17.62,9.18-30.25-5.5c1.73-4.82,1.39-13.54,1.39-13.54s-15.4-14.26-14.26-16.53,10.54-17,12.64-16.71a58.25,58.25,0,0,1,12.64,3.78c.62.24,1.12,2.2,1.75,2.45C237.64,136.39,241.85,136.51,245.39,137.87Z"/><path class="cls-15" d="M252.22,154.46a1.17,1.17,0,0,1,.1.39c.08,1.93-9.52,9.61-9.52,9.61s-14,.11-13.63,3.11c.23,2.12,6.93,10.75,11,15.83a23,23,0,0,1-20.81-8.16c1.73-4.82,1.39-13.54,1.39-13.54l-1.38-1.29-2.49-5.47C230.25,162.59,239.72,156,252.22,154.46Z"/><path class="cls-7" d="M370.22,124.9c.08.22,1.58,2.53,1.58,2.53a17.77,17.77,0,0,0,4.91.6c2.4-.11,2.67-.44,2.67-.44s8,3.07,8.18,1.9-6.39-5.88-6.39-5.88,2.36-3.87,3.6-4.42,6.64-3.34,7-4.37-3.81.26-4.07.3-14.38,5.65-14.86,5.81-3.65,1.48-3.65,1.48Z"/><path class="cls-7" d="M174,145.38c.65,0,5.76-9.81,5.93-11.18s1.72-9.63.77-9.46-2.51,2.3-3.18,4.21a28.47,28.47,0,0,0-1,4.13,7.7,7.7,0,0,0-4.64,3.44c-1.85,2.93-3.27,5.08-2,7.1S174,145.38,174,145.38Z"/><path class="cls-7" d="M173.58,126.46c-.44-.89-.15-2.74-1.56-3a2.82,2.82,0,0,0-2.88,2.56,14.64,14.64,0,0,0,2.35,5.9c1.24,1.46,2.09,1,2.6.33S173.58,126.46,173.58,126.46Z"/><path class="cls-7" d="M168,131.67c-.49-.59-.61-2-1.72-2a2.19,2.19,0,0,0-1.71,2.46,11.38,11.38,0,0,0,2.85,4c1.21.87,1.77.37,2-.23S168,131.67,168,131.67Z"/><path class="cls-7" d="M170.58,128.93c-.4-.81-.13-2.52-1.44-2.77a2.59,2.59,0,0,0-2.65,2.36,13.48,13.48,0,0,0,2.16,5.44c1.14,1.35,1.93.93,2.4.31S170.58,128.93,170.58,128.93Z"/><path class="cls-7" d="M177,126.16c0-1,.75-2.57-.17-3.38s-2.57.14-2.84,1.18a18.61,18.61,0,0,0-.18,6.35c.42,1.84,1.17,1.76,1.74,1.35S177,126.16,177,126.16Z"/><path class="cls-9" d="M220,144.81,218.42,139l2.32-10.31s.76-4.69-1-6.56-7.46-.32-7.46-.32a4.92,4.92,0,0,1,.49,5.84c-2.85,5.33-13,5.58-10.7,14.59L198.63,148s4.71,7.45,7.06,9.16,8.67,1.38,9.73,1.7,5.68,3.95,5.66,3.41c0-1.14-3.91-7.33-4.21-7.31-1.59.15-4.34-1.34-5.79-3.64-2-3.18,2.2-5.4,4-5.52s8.27,4.92,8,5.24C224.65,148.79,221.46,146,220,144.81Z"/><path class="cls-9" d="M215.82,405c-1.1,3.81,1.31,10.87,9.58,7.17,0,0,6.86,14.51,7.46,15.16s1.78,2.79.89,3.61c-5.17,4.76-24.27-7.69-26.31-21.73-.22-1.57,5.24-4.36,7.8-5.52C217.19,402.84,216.2,403.71,215.82,405Z"/><path class="cls-14" d="M212,405.4c-2.34,1.27-4.68,2.81-4.55,3.84,1.91,14.06,21.14,26.49,26.31,21.73.45-.41.38-1.15.12-1.87-1.6.37-4.53.56-8.68-1.1-6.56-2.63-13.7-13-13.7-13a11.06,11.06,0,0,0,.34-1.77c.12-.89.24-2.15.31-3.87,0-.92,0-1.66,0-2.26A11.22,11.22,0,0,0,212,405.4Z"/><path class="cls-14" d="M225,409a5.77,5.77,0,0,1-3,1.17c-.51.07-1.32,2.38-.75,4,1.19,3.46,3.85,8.3,5.25,8.2a8.8,8.8,0,0,0,3.06-1.33C229.58,420.93,225,409,225,409Z"/><path class="cls-9" d="M128.22,362.11c-3.2,2-7.07,8.42,1.07,11.1,0,0-4.47,14.59-4.46,15.43s-.54,3.1-1.69,3.11c-6.68,0-12.24-21-4.57-32.11C119.32,358.55,130.9,360.47,128.22,362.11Z"/><path class="cls-14" d="M124.21,359.85c-2.45-.6-5.09-1-5.64-.21-7.67,11.1-2.11,32.14,4.57,32.11.58,0,1-.57,1.28-1.24a13.82,13.82,0,0,1-5.39-6.33c-2.93-6.05-1.3-17.91-1.3-17.91a10.92,10.92,0,0,0,1.37-1c.65-.55,1.54-1.35,2.69-2.51.62-.63,1.1-1.15,1.46-1.59A9.52,9.52,0,0,0,124.21,359.85Z"/><path class="cls-14" d="M131.12,370.7a5.48,5.48,0,0,1-2.84-1.08c-.41-.27-2.45.82-3.11,2.35-1.37,3.19-2.61,8.3-1.55,9.12a8.27,8.27,0,0,0,3,1C126.64,382,131.12,370.7,131.12,370.7Z"/><path class="cls-15" d="M242,142.41l3.41-4.54c-.55-.2-6.33,2.41-6.33,2.41L232.29,137l6.21,6.57Z"/><polygon class="cls-15" points="231.36 133.6 232.37 136.37 220.86 140.89 231.36 133.6"/><path class="cls-6" d="M215.75,147.4c-.42,0-3.06,0-3.58,1.28s1.62,3.93,3.52,4.72,6.21-.28,5.64-1.11-2.82-.19-3-1.48,1.24-.9.44-1.93S215.75,147.4,215.75,147.4Z"/><path class="cls-15" d="M183.63,203.85S167.25,207,163,202.23c-3.89-4.42,5.29-51.57,6.73-58.84a2.62,2.62,0,0,1-.22-.52,4.56,4.56,0,0,1,.62-3.49l-.65-.1-.33.33c-.2,1-.46,2.18-.77,3.55-3.56,15.86-13.33,55.61-11.12,63.71,1.41,5.21,7.85,4.47,14.15,4.09,4.6-.28,10.45-.58,15.95-.89l-4.23-18.65-1.54.59Z"/><path class="cls-15" d="M171.4,139.56a51.47,51.47,0,0,1,5.42-5s.28-1,1.26-3.58c.06-.18.13-.36.2-.55,1.15-3,2.51-5.69,2.51-5.69a.14.14,0,0,0-.09,0c-.86.16-2.25,2-3,3.72-.07.16-.13.33-.19.49a27.34,27.34,0,0,0-.82,3.09c-.12.62-.19,1-.19,1a5.88,5.88,0,0,0-1.3.46,8,8,0,0,0-3.34,3l-.67,1.06c-.39.63-.75,1.23-1,1.8a4.56,4.56,0,0,0-.62,3.49,2.62,2.62,0,0,0,.22.52c.12-.61.19-.94.19-.94a5.91,5.91,0,0,1,1-2.32A4.09,4.09,0,0,1,171.4,139.56Z"/><path class="cls-15" d="M168.41,143.16c.31-1.37.57-2.57.77-3.55l-1.48,1.49C168,142,168.24,142.68,168.41,143.16Z"/><path class="cls-15" d="M169.51,139.28l.65.1c.29-.57.65-1.17,1-1.8Z"/><path class="cls-15" d="M175.21,133.54a5.88,5.88,0,0,1,1.3-.46s.07-.42.19-1Z"/><path class="cls-16" d="M279.44,189.17c-19.22,9.35-43.56,25.15-55.8,34.62a112.7,112.7,0,0,1,2.52,17.67c13.92-18.33,35.11-34.14,54.5-46.71Q280.12,192,279.44,189.17Z"/><path class="cls-16" d="M281.13,197.28c-16.88,11.26-44.46,36.6-54.75,48.68a151.67,151.67,0,0,1-.53,18c12.52-16.95,41-47.09,56.27-60.1C281.85,201.71,281.52,199.51,281.13,197.28Z"/><path class="cls-17" d="M213.74,200.22a31.18,31.18,0,0,1-9.49,3.34c-8.88,1.32-14.1-4.13-18.73-13.06q-.3-.58-.6-1.2l-2,.88.29,1.24,4.23,18.65,1.11,4.86,30.1-6.21a78.26,78.26,0,0,1,5,15.07c1.94-1.5,4.19-3.17,6.68-4.94-2.31-11.08-5.5-22.31-9.93-30.79Z"/><path class="cls-17" d="M232.91,233.36c-2.4,2.64-4.66,5.34-6.75,8.1.1,1.53.17,3,.22,4.5,1.88-2.22,4.35-4.87,7.22-7.8Q233.27,235.82,232.91,233.36Z"/><path class="cls-17" d="M235.25,252.24c-3.63,4.3-6.85,8.3-9.4,11.76-.47,5.23-1,8.44-1,8.44.6.38,1.22.73,1.86,1.07a47.47,47.47,0,0,0,12.88,4.41l.57.11c10.17,1.92,21.43,1.37,29.62-1.51a30.35,30.35,0,0,0,3.41-1.43c3.41-1.69,6-3.9,7.3-6.61,0-.69.08-1.37.13-2.05-1.56.64-3.15,1.25-4.77,1.8l-.59.19a57.79,57.79,0,0,1-16.6,3.08,30.47,30.47,0,0,1-12.72-2.19,22.21,22.21,0,0,1-2.24-1.11,20.49,20.49,0,0,1-7.58-7.56C236,260.47,235.76,257.29,235.25,252.24Z"/><path class="cls-18" d="M226.16,241.46c2.09-2.76,4.35-5.46,6.75-8.1-.71-4.64-1.56-9.56-2.59-14.51-2.49,1.77-4.74,3.44-6.68,4.94A112.7,112.7,0,0,1,226.16,241.46Z"/><path class="cls-18" d="M233.6,238.16c-2.87,2.93-5.34,5.58-7.22,7.8a151.67,151.67,0,0,1-.53,18c2.55-3.46,5.77-7.46,9.4-11.76C234.87,248.45,234.34,243.59,233.6,238.16Z"/><path class="cls-15" d="M312.81,162.16l60-34.49c-.61-.13-1-.24-1-.24s-.3-.45-.63-1l-1.28,0-73.46,35.78,5.37,7.36C307.42,165.87,312.81,162.16,312.81,162.16Z"/><path class="cls-15" d="M376.71,128c2.4-.11,2.68-.44,2.68-.44s7.44,2.87,8.12,2L380,125.84a20,20,0,0,0-2.51.41,32.11,32.11,0,0,1-5,.23l-1.36,0c.33.53.63,1,.63,1s.39.11,1,.24A16.73,16.73,0,0,0,376.71,128Z"/><polygon class="cls-17" points="301.8 169.55 296.43 162.19 279.52 171.26 272.6 174.97 278.7 186.28 301.94 169.75 301.8 169.55"/><path class="cls-15" d="M223.87,331.77l-17.35,30.48s-7.3-.32-28.05-1.29c-18.69-.88-47.3,4.31-53.59,5.1a4.51,4.51,0,0,0,.8,5.09,4.1,4.1,0,0,1,2.47-1.57c.21-.34.33-.5.33-.5,1.45-1.91,47.7.48,72.34-.13,10.35-.25,13.92-4.38,19.75-12.08,4.68-6.18,11.7-16,18.82-26.29l-24.94-9.26c-.3-.05-.57-.1-.82-.16l-.3,1Z"/><path class="cls-15" d="M256.14,349c-14.85,11.84-29,31.09-39.6,54.81l-.3.2a6.73,6.73,0,0,0-.42,1,7.51,7.51,0,0,0,.53,5.26c5-9.37,12.32-21.88,20.49-30.85C251.6,363.22,263,354.79,263,354.79s-2.11-18.08-1.14-18.32,14.85-6.06,17.35-7.11v-.11L250.26,333Z"/><path class="cls-10" d="M250.26,333l28.9-3.74.39-.05h-.39c-2.65.05-18,.23-20.92-2.87-2-2.17-3.69-7.82-4.65-11.64-2.13,3.15-4.37,6.19-6.72,9.09l-.9,1.09,2.42,8.36Z"/><path class="cls-19" d="M198.63,148s4.71,7.45,7.06,9.16c1.24.89,3.58,1.23,5.68,1.39a34.56,34.56,0,0,1-4.37-5c-2.43-3.33-4.3-6.33-3.69-5.84s3.53,1.3,3.37,1a44.94,44.94,0,0,1-1.26-7.21c-.28-3,0-4.06.12-3.81S208.3,140,208.3,140s3.89-3.81,3.77-8.88a13.6,13.6,0,0,0-.24-2.23c-3.63,4.15-11.9,5.08-9.79,13.3Z"/><path class="cls-20" d="M215.11,137.23c.53,4,2.51,5.51,2.51,5.51s-2.51,0-2.79.08,3.4,1.79,5.63,4.14a10.8,10.8,0,0,1,2.67,4l.06.05c1.41-2.22-1.74-5-3.15-6.16L218.42,139l2.31-10.25v-.06s.76-4.69-1-6.56-7.46-.32-7.46-.32,4.16,1.25,5.33,4.41a6.8,6.8,0,0,1,.38,2.85,10.36,10.36,0,0,1-1,3.76s-.5-.9-.93-1.71a8.45,8.45,0,0,1-.57-1.21,8.35,8.35,0,0,0-.41,2.43A23.49,23.49,0,0,0,215.11,137.23Z"/><path class="cls-21" d="M299.22,152c4-1.68,10-3.55,14-5,5.85-2.2,55.44-23.33,55.87-23.52s7.64-1.65,7.73.14-7.86,2-7.86,2L315.8,150.76s-13.48,6.78-17.23,6.78C295.7,157.54,293.63,154.35,299.22,152Z"/><path class="cls-21" d="M173.81,140.65a52.29,52.29,0,0,0-3.3,7.5c-.45,1.69-6.92,49-5.31,52.21s13.07,3.21,13.7,1.25,1.87-4.55.18-4.82-6.7,1.16-7.37-.44,4.93-56,4.13-57.2S173.81,140.65,173.81,140.65Z"/><path class="cls-21" d="M266.72,340.92c-.53,4.46,2.32,12.5-1.07,16.42s-37.13,36-40.34,41.6-1,7,.26,6.33,44.54-40.16,48.65-47.21c3.16-5.44,1.5-15.27.58-19.5C273.74,333.75,267.07,338,266.72,340.92Z"/><path class="cls-21" d="M218.3,332.28c-1.07-1.11-4-3.21-4.24-2.9S205,352.32,205,352.32c-14.6-4.42-70.87,3.58-70.87,8.66,0,1.9,15-1,39.1-2.5,18.17-1.17,30.52,2.77,32.93.89S218.3,332.28,218.3,332.28Z"/><path class="cls-22" d="M328.06,70.11l-5.4,4.17.47.64.73.14.26,1,.52.33.22.91.6.22,0,.79.47.53-.13.71.23.8-.4.41,0,1s-.48.71-.49.75.16.74.17.8a4.49,4.49,0,0,1-.7.4l-.05.57,6.48,2,.2-.88,1.14-.94L332.23,83l.76-1-.15-1.26.73-.86-.44-1.44.41-1.22-.9-.87V75.19l-1.17-.65-.09-1.17-1.19-.85-.11-1.17-1.47-.44Z"/><path class="cls-23" d="M318.07,77.7a.24.24,0,0,1-.3-.14.24.24,0,0,1,.14-.3c2.67-1,7.08-5.26,10.12-7.35a.24.24,0,0,1,.32.06.05.05,0,0,1,0,0l.37.71,1.31.33a.2.2,0,0,1,.16.12l0,.08.14,1.18,1.08.68a.24.24,0,0,1,.11.13.07.07,0,0,1,0,.05l.11,1.18,1.05.57a.19.19,0,0,1,.12.14.17.17,0,0,1,0,.07v1.07l.72.73a.29.29,0,0,1,.08.14.17.17,0,0,1,0,.12l-.26,1.13.4,1.37a.09.09,0,0,1,0,0,.2.2,0,0,1-.07.19l-.69.75L333.2,82v0a.24.24,0,0,1-.05.14l-.71,1,.23,1.24a.24.24,0,0,1-.11.25l-1.1.81-.09.76s0,0,0,0a.24.24,0,0,1-.28.17c-4.13-1-7.82-2.43-12-3.39a.23.23,0,0,1-.24-.23.24.24,0,0,1,.23-.24c1.79.5,3.51.82,5.33,1.38l0-.24a.23.23,0,0,1,.09-.18l.05,0-.46-.08c-1.51-.27-3.55-.73-5-1a.24.24,0,0,1,0-.47c1.39.28,3.53.73,5.06,1l.9.15.05,0-.13-.69h0a.23.23,0,0,1,0-.18l.12-.16c-2.84-.1-5.48-.19-6.1-.17a.24.24,0,0,1-.25-.22.25.25,0,0,1,.23-.25c.65,0,3.46.08,6.42.19l-.08-.67h0a.21.21,0,0,1,0-.17c-2.9.2-5.61.4-6.34.5a.23.23,0,0,1-.07-.46c.8-.11,3.74-.32,6.8-.54l-.21-.7a.24.24,0,0,1,0-.12l.11-.49-6.77,1.29a.23.23,0,0,1-.08-.46l6.59-1.26-.1-.1a.21.21,0,0,1-.08-.18v-.57c-2.14.62-4.34,1.32-6.5,1.82a.24.24,0,0,1-.28-.17.23.23,0,0,1,.18-.28c2-.47,4.05-1.12,6-1.69h0a.25.25,0,0,1-.14-.19l-.07-.69h0c-2.71,1.15-5.28,2.24-5.9,2.45a.23.23,0,0,1-.29-.15.24.24,0,0,1,.14-.3c.59-.19,3-1.21,5.57-2.31l-.11-.07a.22.22,0,0,1-.12-.18l-.08-.63-.17,0a57.58,57.58,0,0,1-5.1,3.08.24.24,0,0,1-.31-.12.23.23,0,0,1,.12-.31A49.44,49.44,0,0,0,322.88,75a.18.18,0,0,1-.07-.08l-.17-.33a46.65,46.65,0,0,1-4.57,3.07Zm7.45-5.31h0l-1.06.82.18.34.57.14.54-.3.61-.35-.48-.12a.22.22,0,0,1-.15-.12l-.21-.41Zm-1.44,1.11h0l-1.07.84.16.31.26.07,1.19-.69-.2,0h0a.26.26,0,0,1-.15-.12l-.19-.36Zm4-3h0l-1,.72.25.47,1,.26,1-.54-.85-.21a.26.26,0,0,1-.15-.12l-.3-.58Zm-1.33,1h0l-.85.65.21.39.85.22.84-.48-.64-.16A.24.24,0,0,1,327,72l-.25-.5ZM326,73.8h0l-.25.14a.06.06,0,0,0,0,0l.1.82.53.33,1.28-.54-.5-.31a.26.26,0,0,1-.12-.18l-.1-.84-.95.54Zm-.7.39h0l-1.23.71a.27.27,0,0,1,.07.14l.09.69.31.19.41-.18.91-.38-.33-.21a.23.23,0,0,1-.12-.18l-.1-.77Zm4.53-2.54h0l-1.06.59.12,1,.82.52,1.14-.47-.78-.49a.24.24,0,0,1-.12-.17l-.12-.95Zm-1.5.83h0l-.94.53.11.92.69.44,1-.42-.62-.39a.26.26,0,0,1-.12-.18l-.11-.9Zm-3.2,3.7h0l-.17.07s0,0,0,0h0L325,77l.32.18,1.37-.4-.24-.13a.23.23,0,0,1-.14-.19l-.07-.75-1.15.49Zm6-2.54h0l-1.16.48.09,1,.83.45,1.14-.34-.66-.36a.25.25,0,0,1-.14-.2l-.1-1Zm-1.61.67h0l-1,.43.08.9.69.37,1-.29-.51-.28a.22.22,0,0,1-.13-.19l-.09-.94Zm-1.49.62h0l-1.33.57.08.77.55.3,1.29-.37-.37-.2a.27.27,0,0,1-.14-.2l-.08-.87Zm4.36.64h0l-1.25.37v.84l.54.55,1.27-.24-.48-.49a.26.26,0,0,1-.08-.19v-.84Zm-1.72.51h0l-1.11.33v.79l.44.45,1.12-.22-.37-.37a.22.22,0,0,1-.08-.19v-.79Zm-1.59.47h0l-1.45.43v.64l.39.4,1.43-.27-.28-.28a.21.21,0,0,1-.09-.18v-.74Zm-1.92.56h0l-1.43.42v.61l.26.27,1.47-.28-.23-.23a.26.26,0,0,1-.08-.19v-.6Zm-2.33,7h0l1.28.39,0-.35a.27.27,0,0,1,.1-.18l.21-.15-1.27-.2-.33.24,0,.25Zm1.73.53h0l1.32.4,0-.3a.21.21,0,0,1,.1-.17l.57-.43-.9-.13-.58-.09-.5.37-.05.35Zm1.78.53h0l1,.3,0-.44a.23.23,0,0,1,.1-.17l.66-.49-.9-.13-.87.64,0,.29Zm1.45.43h0l1.13.32.08-.6a.24.24,0,0,1,.09-.17l.73-.54-1-.14-1,.7-.06.43Zm-4.18-2.39h0l1.38.22-.15-.83h0a.26.26,0,0,1,0-.19l.21-.27-1,0h-.37l-.25.33.14.73v.06Zm1.87.29h0l.28,0,1.1.17-.15-.78h0a.24.24,0,0,1,0-.18l.4-.54-1.51,0-.33.45.16.87v0Zm1.87.28h0l1.08.16-.17-.89h0a.23.23,0,0,1,.05-.18l.44-.61-1,0-.54.72.16.83Zm1.57.23h0l1.22.17-.19-1a.2.2,0,0,1,0-.18l.5-.66-1.17,0-.58.78.18.95Zm-5-2.39h.18l1.27,0-.1-.8a.22.22,0,0,1,.06-.19l.06-.06-1,.07-.31,0-.25.26.09.64Zm1.92.07h0l1.47.06-.1-.8a.31.31,0,0,1,.06-.19l.27-.29-1.47.11-.32.35.09.76Zm1.95.07h0l1.14,0-.12-.93a.24.24,0,0,1,.06-.19l.31-.33-1,.07-.53.57.1.77Zm1.61.05h0l1.28,0-.14-1.06h0a.22.22,0,0,1,.06-.19l.35-.39-1.1.09-.57.63.11.89Zm-5.13-1.58h.09l1.42-.1-.25-.86a.24.24,0,0,1,0-.12l.13-.56-1.47.28-.14.63.22.73Zm2-.14h0L329.8,80l-.26-.9h0a.17.17,0,0,1,0-.12l.17-.76-1.53.29-.16.71.26.89Zm2-.14h0l1.18-.09-.3-1a.2.2,0,0,1,0-.11l.19-.82-1.14.21L330,79l.28,1Zm1.66-.13h0c.55,0,1-.08,1.33-.12l-.34-1.16a.25.25,0,0,1,0-.12l.2-.87-1.27.24-.22,1Z"/><path class="cls-24" d="M317.89,77.17a6.25,6.25,0,0,1,1.12,6.1l-1,.2,0,0a5,5,0,0,0,.23-3.17,5.09,5.09,0,0,0-1.34-2.89h0Z"/><path class="cls-25" d="M316.81,77.37a5,5,0,0,1,1.36,2.9,4.92,4.92,0,0,1-.24,3.2l-2.25.42a3.11,3.11,0,0,1-1.13-6.11l.25,0Z"/><path class="cls-26" d="M316.67,79.81a2.2,2.2,0,0,1,.55,3l-1.68.31c-1.26.23-2.41-.25-2.57-1.08s.75-1.69,2-1.92l.19,0Z"/></g></g></svg>