<?xml version="1.0" encoding="utf-8"?>
<!-- Generator: Adobe Illustrator 24.1.0, SVG Export Plug-In . SVG Version: 6.00 Build 0)  -->
<svg version="1.1" id="Layer_1" xmlns="http://www.w3.org/2000/svg" xmlns:xlink="http://www.w3.org/1999/xlink" x="0px" y="0px"
	 viewBox="0 0 2676 2000" style="enable-background:new 0 0 2676 2000;" xml:space="preserve">
<style type="text/css">
	.st0{display:none;fill:#FFFFFF;}
	.st1{display:none;fill:#EAFCFC;}
	.st2{display:none;opacity:0.3;fill:#81B4DA;enable-background:new    ;}
	.st3{display:none;fill:#3C8F7C;}
	.st4{display:none;fill:#96D9C9;}
	.st5{display:none;fill:#81B4DA;}
	.st6{display:none;fill:#F7A491;}
	.st7{display:none;fill:#355389;}
	.st8{fill:#355389;}
	.st9{fill:#13375B;}
	.st10{fill:#B75742;}
	.st11{fill:#F48C7F;}
	.st12{fill:#2D4972;}
	.st13{fill:#F7A491;}
	.st14{fill:#F47458;}
	.st15{fill:#FFFFFF;}
	.st16{fill:#F8A492;}
	.st17{display:none;fill:#13375B;}
	.st18{display:none;fill:#E5AC53;}
	.st19{display:none;fill:#F7CC7F;}
	.st20{display:none;fill:#F47458;}
	.st21{display:none;fill:#ABC5FF;}
	.st22{display:none;fill:#8FB2EF;}
	.st23{display:none;fill:#1A2538;}
</style>
<g>
	<g id="Layer_1_1_">
		<rect x="21.7" y="-196.2" class="st0" width="2676" height="2400"/>
		<path class="st1" d="M1025.7,446.7c0,0,614.6,103.8,557.4,289.9s305.8-66.1,450.7,1c103.1,47.8,61.9,193.2,111.8,251.8
			c114.4,134.4,231.4-34.8,377.1,66.7s-21.9,1029.1-81.2,1028.9l-2165.4,6.2c0,0-164.8-260.7-15.7-420s46.7-232.1,28.6-293.7
			c-20.8-70.7-95.3-272.4,116.9-360.8c153.8-64,157.9-287.9,151.7-328.5C557.6,688.4,498.1,367.1,1025.7,446.7z"/>
		<polygon class="st2" points="2295.7,2081.4 2295.7,1829.4 2209.7,1829.4 2209.7,1643.4 2126.7,1643.4 2126.7,1726.2 
			2058.7,1726.2 2058.7,1699.6 2058.7,1535.4 1946.7,1535.4 1946.7,1709.9 1912.7,1711.1 1912.7,1535.4 1873.7,1535.4 1873.7,1461 
			1850.7,1461 1850.7,1410.6 1758.7,1410.6 1758.7,1461 1735.7,1461 1735.7,1535.4 1695.7,1535.4 1695.7,1630.8 1677.2,1631.9 
			1671.6,1349.4 1551.7,1349.4 1551.7,1499.7 1509.7,1500.8 1509.7,1266.6 1494.7,1266.6 1494.7,1217.4 1367.7,1217.4 
			1367.7,1266.6 1352.7,1266.6 1352.7,1582.2 1325.7,1582.2 1325.7,1483.8 1303.7,1483.8 1303.7,1435.8 1271.7,1435.8 
			1271.7,1294.2 1224.6,1294.2 1221.1,1461 1169.7,1461 1169.7,1489.8 1154,1489.8 1141.7,1489.7 1141.7,1325.4 810.7,1328.6 
			810.7,1715.1 782.7,1716.7 782.7,1455 681.7,1455 681.7,1564.2 652.7,1564.7 652.7,1524.6 588.7,1524.6 588.7,1662.6 
			524.7,1662.6 524.7,2081.4 		"/>
		<path class="st3" d="M1763.7,1810.9c-140.7,14.4-323,97-504.8,162.1c336,43.9,829.8,115.5,860.5,116.8h-52l73.3,1.2h200.1
			C2247.5,2012.3,1904.4,1796.5,1763.7,1810.9z"/>
		<path class="st4" d="M475.9,2086.1c0,0,209.9-199,480.6-211.3c90.9-4.1,1118.1,211.9,1162.9,213.8L475.9,2086.1z"/>
		<path class="st5" d="M2335.6,764l34.9-60.3l-10.3-0.6l-30,51.7l-30-51.7l-10.3,0.6l34.9,60.3l-68.1,117.6L2188.6,764l35.1-60.3
			l-10.3-0.6l-30,51.7l-29.9-51.7l-10.3,0.6L2178,764l-68.1,117.6L2041.8,764l34.9-60.3l-10.3-0.6l-30,51.7l-30-51.7l-10.3,0.6
			L2031,764l-68.1,117.6L1894.8,764l34.9-60.3l-10.3-0.6l-30,51.7l-30-51.7l-10.3,0.6l34.9,60.3L1816,881.6L1747.9,764l34.9-60.3
			l-10.3-0.6l-30,51.7l-29.9-51.7l-10.3,0.6l34.9,60.3L1669,881.6L1600.9,764l34.9-60.3l-10.3-0.6l-30,51.7l-30-51.7l-10.3,0.6
			l34.9,60.3l-67.5,117.3l-68-117.3l35-60.3l-10.3-0.6l-30,51.7l-30-51.7l-10.3,0.6L1444,764l-68.1,117.6L1307.8,764l34.9-60.3
			l-10.3-0.6l-30,51.7l-30-51.7l-10.3,0.6L1297,764l-68.1,117.6L1160.8,764l34.9-60.3l-10.3-0.6l-30,51.7l-30-51.7l-10.3,0.6
			L1150,764l-68.1,117.6L1013.8,764l34.9-60.3l-10.3-0.6l-30,51.7l-30-51.7l-10.3,0.6l34.9,60.3L935,881.6L866.9,764l34.9-60.3
			l-10.3-0.6l-30,51.7l-30-51.7l-10.3,0.6l34.9,60.3l-68.1,117.6L720,764l34.9-60.3l-10.3-0.6l-30,51.7l-30-51.7l-10.3,0.6
			l35.3,60.3l-68.1,117.6L573.4,764l34.9-60.3l-10.3-0.6l-30,51.7l-30-51.7l-10.3,0.6l34.9,60.3l-68.1,117.6L426.5,764l34.9-60.3
			l-10.3-0.6L418,764.1l71.3,126.7l-71.2,126.8l71.2,126.9l-71.2,126.9l71.2,126.9l-73,126.9l73,126.9l-74.7,126.9l74.7,126.8
			l-68.3,127.2l31.7,60.7l8.8-0.7l-35-60.4l68.1-117.6l68.1,117.6l-34.9,60.3l10.3,0.6l30-51.7l29.9,51.8l10.3-0.6l-34.9-60.3
			l68.1-117.6l68.1,117.6l-35,60.3l10.3,0.6l30-51.7l30,51.8l10.3-0.6l-34.9-60.3l68.1-117.6l68.1,117.6l-34.9,60.3l10.3,0.6
			l30-51.7l29.9,51.7l10.3-0.6l-34.9-60.3l68.1-117.6l68.1,117.6l-34.9,60.3l10.3,0.6l30-51.7l30,51.7l10.3-0.6l-35-60.4l68.1-117.6
			l68.1,117.6l-34.9,60.3l10.3,0.6l30-51.7l30,51.7l10.3-0.6l-34.9-60.3l68.1-117.6l68.1,117.6l-34.9,60.3l10.3,0.6l30-51.7l30,51.7
			l10.3-0.6l-34.9-60.3l68.1-117.6l68.1,117.6l-34.9,60.3l10.3,0.6l30-51.7l30,51.7l10.3-0.6l-35.2-60.3l67.9-117.3l67.9,117.3
			l-34.9,60.3l10.3,0.6l30-51.7l30,51.7l10.3-0.6l-34.9-60.3l68.1-117.6l68.1,117.6l-34.9,60.3l10.3,0.6l29.9-51.7l30,51.7l10.3-0.6
			l-34.9-60.3l68.1-117.6l68.1,117.6l-34.9,60.3l10.3,0.6l30-51.7l30,51.7l10.3-0.6l-34.9-60.3l68.1-117.6l68.1,117.6l-34.9,60.3
			l10.3,0.6l30-51.7l30,51.7l10.3-0.6l-34.9-60.3l68.1-117.6l68.1,117.6l-34.9,60.3l10.3,0.6l29.9-51.7l30,51.7l10.3-0.6l-35.3-60.3
			l68.1-117.6l68.1,117.6l-34.9,60.3l10.3,0.6l30-51.7l30,51.7l10.3-0.6l-34.9-60.3l74.5-126.8l-39.7-66.6l0,0l-34.9-60.3
			l73.7-125.1l-38.8-68.3l0,0l-34.9-60.3l74.5-126.6l-39.6-66.9l0,0l-34.9-60.3l34.9-60.3l0,0l37.1-66l-71.9-127.4l34.9-60.3l0,0
			l37.1-66.8L2335.6,764z M2290,957.4L2290,957.4l34.9,60.3l-68.1,117.6l-68.1-117.6l34.9-60.3l0,0l33.2-57.3L2290,957.4z
			 M2324.9,1271.4l-34.9,60.3l0,0l-33.2,57.3l-33.2-57.3l0,0l-34.9-60.3l34.9-60.3l0,0l33.2-57.3l33.2,57.3l0,0L2324.9,1271.4z
			 M2324.9,1525.1l-34.9,60.3l0,0l-33.2,57.3l-33.2-57.3l0,0l-34.9-60.3l34.9-60.3l0,0l33.2-57.3l33.2,57.3l0,0L2324.9,1525.1z
			 M2115.3,1144.5l68.1-117.6l68.1,117.6l-68.1,117.6L2115.3,1144.5z M2251.4,1398.2l-68.1,117.6l-68.1-117.6l68.1-117.6
			L2251.4,1398.2z M2143.1,1211L2143.1,1211l34.9,60.3l-34.9,60.3l0,0l-33.2,57.5l-33.2-57.3l0,0l-34.9-60.3l34.9-60.3l0,0
			l33.2-57.3L2143.1,1211z M2104.6,1398.2l-68.1,117.6l-68.1-117.6l68.1-117.6L2104.6,1398.2z M2036.5,1262.1l-68.1-117.6
			l68.1-117.6l68.1,117.6L2036.5,1262.1z M1996.2,1211.1L1996.2,1211.1l34.9,60.3l-34.9,60.3l0,0L1963,1389l-33.2-57.3l0,0
			l-34.9-60.3l34.9-60.3l0,0l33.2-57.3L1996.2,1211.1z M1957.7,1398.3l-68.1,117.6l-68.1-117.6l68.1-117.6L1957.7,1398.3z
			 M1889.7,1262.1l-68.1-117.6l68.1-117.6l68.1,117.6L1889.7,1262.1z M1849.4,1211.1L1849.4,1211.1l34.9,60.3l-34.9,60.3l0,0
			l-33.2,57.3l-33.2-57.3l0,0l-34.9-60.3l34.9-60.3l0,0l33.2-57.3L1849.4,1211.1z M1810.9,1398.3l-68.1,117.6l-68.1-117.6
			l68.1-117.6L1810.9,1398.3z M1742.8,1262.2l-68.1-117.6l68.1-117.6l68.1,117.6L1742.8,1262.2z M1702.6,1211.2L1702.6,1211.2
			l34.9,60.3l-34.9,60.3l0,0l-33.3,57.3l-33.2-57.3l0,0l-34.9-60.3l34.9-60.3l0,0l33.2-57.3L1702.6,1211.2z M1664,1398.4
			l-68.1,117.6l-68.1-117.6l68.1-117.6L1664,1398.4z M1595.9,1262.2l-68.1-117.6l68.1-117.6l68.1,117.6L1595.9,1262.2z
			 M1555.7,1211.2L1555.7,1211.2l34.9,60.3l-34.9,60.3l0,0l-33,57l-33-57l0,0l-34.9-60.3l34.9-60.3l0,0l33-57L1555.7,1211.2z
			 M1517.5,1398.4l-68.1,117.6l-68.1-117.6l68.1-117.6L1517.5,1398.4z M1449.4,1262.3l-68.1-117.6l68.1-117.6l68.1,117.6
			L1449.4,1262.3z M1409.2,1211.3L1409.2,1211.3l34.9,60.3l-34.9,60.3l0,0l-33.2,57.3l-33.3-57.5l0,0l-34.9-60.3l34.9-60.3l0,0
			l33.2-57.3L1409.2,1211.3z M1370.6,1398.5l-68.1,117.6l-68.1-117.6l68.1-117.6L1370.6,1398.5z M1302.5,1262.3l-68.1-117.6
			l68.1-117.6l68.1,117.6L1302.5,1262.3z M1262.3,1211.3L1262.3,1211.3l34.9,60.3l-34.9,60.3l0,0l-33.2,57.3l-33.2-57.3l0,0
			l-34.9-60.3l34.9-60.3l0,0l33.2-57.3L1262.3,1211.3z M1223.7,1398.5l-68.1,117.6l-68.1-117.6l68.1-117.6L1223.7,1398.5z
			 M1155.6,1262.4l-68.1-117.6l68.1-117.6l68.1,117.6L1155.6,1262.4z M1115.4,1211.4L1115.4,1211.4l34.9,60.3l-34.9,60.3l0,0
			l-33.3,57.1l-33.2-57.3l0,0l-34.9-60.3l34.9-60.3l0,0l33.2-57.3L1115.4,1211.4z M1076.9,1398.6l-68.1,117.6l-68.1-117.6
			l68.1-117.6L1076.9,1398.6z M1008.8,1262.5l-68.1-117.6l68.1-117.6l68.1,117.6L1008.8,1262.5z M968.5,1211.5L968.5,1211.5
			l34.9,60.3l-34.9,60.3l0,0l-33.3,57l-33.2-57.3l0,0l-34.9-60.3l34.9-60.3l0,0l33.2-57.3L968.5,1211.5z M930,1398.7l-68.1,117.6
			l-68.1-117.6l68.1-117.6L930,1398.7z M861.9,1262.5l-68.1-117.6l68.1-117.6l68.1,117.6L861.9,1262.5z M821.7,1211.1L821.7,1211.1
			l34.9,60.3l-34.9,60.3l0,0l-33.3,57.4l-33.2-57.3l0,0l-34.9-60.3l34.9-60.3l0,0l33.2-57.3L821.7,1211.1z M783.1,1398.3L715,1515.9
			l-68.1-117.6l68.1-117.6L783.1,1398.3z M715,1262.2l-68.1-117.6L715,1027l68.1,117.6L715,1262.2z M674.8,1211.2L674.8,1211.2
			l34.9,60.3l-35,60.2l0,0l-33.1,57.4l-33.2-57.3l0,0l-34.9-60.3l34.9-60.3l0,0l33.2-57.3L674.8,1211.2z M568.1,1262.2l-68.1-117.6
			l68.1-117.6l68.1,117.6L568.1,1262.2z M636.2,1398.3l-68.1,117.6l-68.1-117.6l68.1-117.6L636.2,1398.3z M636.2,1652l-68.1,117.6
			L500.1,1652l68.1-117.6L636.2,1652z M608.4,1585.4L608.4,1585.4l-34.9-60.3l34.9-60.3l0,0l33.2-57.3l33.2,57.3l0,0l34.9,60.3
			l-35,60.2l0,0l-33.2,57.3L608.4,1585.4z M715,1534.4l68.1,117.6L715,1769.6L646.9,1652L715,1534.4z M755.2,1585.4L755.2,1585.4
			l-34.9-60.3l34.9-60.3l0,0l33.2-57.3l33.2,57.3l0,0l34.9,60.3l-34.9,60.3l0,0l-33.2,57.3L755.2,1585.4z M861.9,1534.4L930,1652
			l-68.1,117.6L793.8,1652L861.9,1534.4z M902.1,1585.4L902.1,1585.4l-34.9-60.3l34.9-60.3l0,0l33.2-57.3l33.2,57.3l0,0l34.9,60.3
			l-34.9,60.3l0,0l-33.2,57.3L902.1,1585.4z M1008.8,1534.4l68.1,117.6l-68.1,117.6L940.7,1652L1008.8,1534.4z M1049,1585.4
			L1049,1585.4l-34.9-60.3l34.9-60.3l0,0l33.2-57.3l33.2,57.3l0,0l34.9,60.3l-34.9,60.3l0,0l-33.2,57.3L1049,1585.4z M1155.6,1534.4
			l68.1,117.6l-68.1,117.6l-68.1-117.6L1155.6,1534.4z M1195.9,1585.4L1195.9,1585.4l-34.9-60.3l34.9-60.3l0,0l33.2-57.3l33.2,57.3
			l0,0l34.9,60.3l-34.9,60.3l0,0l-33.2,57.3L1195.9,1585.4z M1302.5,1534.4l68.1,117.6l-68.1,117.6l-68.1-117.6L1302.5,1534.4z
			 M1342.7,1585.4L1342.7,1585.4l-34.9-60.3l34.9-60.3l0,0l33.2-57.3l33.2,57.3l0,0l34.9,60.3l-34.9,60.3l0,0l-33.2,57.3
			L1342.7,1585.4z M1449.4,1534.4l68.1,117.6l-68.1,117.6l-68.1-117.6L1449.4,1534.4z M1489.6,1585.4L1489.6,1585.4l-34.9-60.3
			l34.9-60.3l0,0l33-57l33,57l0,0l34.9,60.3l-34.9,60.3l0,0l-33,57L1489.6,1585.4z M1595.9,1534.4L1664,1652l-68.1,117.6
			l-68.1-117.6L1595.9,1534.4z M1636.1,1585.4L1636.1,1585.4l-34.9-60.3l34.9-60.3l0,0l33.2-57.3l33.2,57.3l0,0l34.9,60.3
			l-34.9,60.3l0,0l-33.2,57.3L1636.1,1585.4z M1742.8,1534.4l68.1,117.6l-68.1,117.6l-68.1-117.6L1742.8,1534.4z M1783,1585.4
			L1783,1585.4l-34.9-60.3l34.9-60.3l0,0l33.2-57.3l33.2,57.3l0,0l34.9,60.3l-34.9,60.3l0,0l-33.2,57.3L1783,1585.4z M1889.6,1534.4
			l68.1,117.6l-68.1,117.6l-68.1-117.6L1889.6,1534.4z M1929.9,1585.4L1929.9,1585.4l-34.9-60.3l34.9-60.3l0,0l33.2-57.3l33.2,57.3
			l0,0l34.9,60.3l-34.9,60.3l0,0l-33.2,57.3L1929.9,1585.4z M2036.5,1534.4l68.1,117.6l-68.1,117.6l-68.1-117.6L2036.5,1534.4z
			 M2076.8,1585.4L2076.8,1585.4l-34.9-60.3l34.9-60.3l0,0l33.2-57.3l33.2,57.3l0,0l34.9,60.3l-34.9,60.3l0,0l-33.2,57.3
			L2076.8,1585.4z M2183.4,1534.4l68.1,117.6l-68.1,117.6l-68.1-117.6L2183.4,1534.4z M2183.4,773.3l68.1,117.6l-68.1,117.6
			l-68.1-117.6L2183.4,773.3z M2143.2,957.4L2143.2,957.4l34.9,60.3l-68.1,117.6l-68.1-117.6l34.9-60.3l0,0l33.2-57.3L2143.2,957.4z
			 M2036.5,773.2l68.1,117.6l-68.1,117.6l-68.1-117.6L2036.5,773.2z M1996.2,957.4L1996.2,957.4l34.9,60.3l-68.1,117.6l-68.1-117.6
			l34.9-60.3l0,0l33.2-57.3L1996.2,957.4z M1889.7,773.2l68.1,117.6l-68.1,117.6l-68.1-117.6L1889.7,773.2z M1849.4,957.4
			L1849.4,957.4l34.9,60.3l-68.1,117.6l-68.1-117.6l34.9-60.3l0,0l33.2-57.3L1849.4,957.4z M1742.7,773.2l68.1,117.6l-68.1,117.6
			l-68.1-117.6L1742.7,773.2z M1702.5,957.4L1702.5,957.4l34.9,60.3l-68.1,117.6l-68.1-117.6l34.9-60.3l0,0l33.2-57.3L1702.5,957.4z
			 M1595.9,773.2l68.1,117.6l-68.1,117.6l-68.1-117.6L1595.9,773.2z M1555.7,957.4L1555.7,957.4l34.9,60.3l-67.9,117.3l-68-117.3
			l35-60.3l0,0l33-57L1555.7,957.4z M1449.3,773.2l68.1,117.6l-68.1,117.6l-68.1-117.6L1449.3,773.2z M1409.1,957.4L1409.1,957.4
			l34.9,60.3l-68.1,117.6l-68.1-117.6l34.9-60.3l0,0L1376,900L1409.1,957.4z M1302.5,773.2l68.1,117.6l-68.1,117.6l-68.1-117.6
			L1302.5,773.2z M1262.2,957.4L1262.2,957.4l34.9,60.3l-68.1,117.6l-68.1-117.6l34.9-60.3l0,0l33.2-57.3L1262.2,957.4z
			 M1155.6,773.2l68.1,117.6l-68.1,117.6l-68.1-117.6L1155.6,773.2z M1115.4,957.4L1115.4,957.4l34.9,60.3l-68.1,117.6l-68.1-117.6
			l34.9-60.3l0,0l33.2-57.3L1115.4,957.4z M1008.7,773.2l68.1,117.6l-68.1,117.6l-68.1-117.6L1008.7,773.2z M968.5,957.4
			L968.5,957.4l34.9,60.3l-68.1,117.6l-68.1-117.6l34.9-60.3l0,0l33.2-57.3L968.5,957.4z M861.8,773.2l68.1,117.6l-68.1,117.6
			l-68.1-117.6L861.8,773.2z M821.7,957.4L821.7,957.4l34.9,60.3l-68.1,117.6l-68.1-117.6l34.9-60.3l0,0l33.2-57.3L821.7,957.4z
			 M715,773.2l68.1,117.6L715,1008.4l-68.1-117.6L715,773.2z M674.7,957.4L674.7,957.4l34.9,60.3l-68.1,117.6l-68.1-117.6l34.9-60.3
			l0,0l33.2-57.3L674.7,957.4z M568.1,773.2l68.1,117.6l-68.1,117.6L500,890.8L568.1,773.2z M426.6,1017.7l34.9-60.3l0,0l33.2-57.3
			l33.2,57.3l0,0l34.9,60.3l-68.1,117.6L426.6,1017.7z M461.5,1331.7L461.5,1331.7l-34.9-60.3l34.9-60.3l0,0l33.2-57.3l33.2,57.3
			l0,0l34.9,60.3l-34.9,60.3l0,0l-33.2,57.4L461.5,1331.7z M461.5,1585.4L461.5,1585.4l-34.9-60.3l34.9-60.3l0,0l33.2-57.3
			l33.2,57.3l0,0l34.9,60.3l-34.9,60.3l0,0l-33.2,57.3L461.5,1585.4z M461.5,1839.1L461.5,1839.1l-34.9-60.3l68.1-117.6l68.1,117.6
			l-34.9,60.3l0,0l-33.2,57.4L461.5,1839.1z M568.1,2023.3L500,1905.7l68.1-117.6l68.1,117.6L568.1,2023.3z M608.3,1839L608.3,1839
			l-34.9-60.3l68.1-117.6l68.1,117.6l-34.9,60.3l0,0l-33.2,57.3L608.3,1839z M715,2023.2l-68.1-117.6L715,1788l68.1,117.6
			L715,2023.2z M755.2,1839L755.2,1839l-34.9-60.3l68.1-117.6l68.1,117.6l-34.9,60.3l0,0l-33.2,57.3L755.2,1839z M861.8,2023.2
			l-68.1-117.6l68.1-117.6l68.1,117.6L861.8,2023.2z M902.1,1839L902.1,1839l-34.9-60.3l68.1-117.6l68.1,117.6l-34.9,60.3l0,0
			l-33.2,57.3L902.1,1839z M1008.7,2023.2l-68.1-117.6l68.1-117.6l68.1,117.6L1008.7,2023.2z M1049,1839L1049,1839l-34.9-60.3
			l68.1-117.6l68.1,117.6l-34.9,60.3l0,0l-33.2,57.3L1049,1839z M1155.6,2023.2l-68.1-117.6l68.1-117.6l68.1,117.6L1155.6,2023.2z
			 M1195.8,1839L1195.8,1839l-34.9-60.3l68.1-117.6l68.1,117.6l-34.9,60.3l0,0l-33.2,57.3L1195.8,1839z M1302.5,2023.2l-68.1-117.6
			l68.1-117.6l68.1,117.6L1302.5,2023.2z M1342.7,1839L1342.7,1839l-34.9-60.3l68.1-117.6l68.1,117.6l-34.8,60.3l0,0l-33.2,57.3
			L1342.7,1839z M1449.3,2023.2l-68.1-117.6l68.1-117.6l68.1,117.6L1449.3,2023.2z M1489.6,1839L1489.6,1839l-34.9-60.3l67.9-117.3
			l67.9,117.3l-34.9,60.3l0,0l-33,57L1489.6,1839z M1595.9,2023.2l-68.1-117.6l68.1-117.6l68.1,117.6L1595.9,2023.2z M1636.1,1839
			L1636.1,1839l-34.9-60.3l68.1-117.6l68.1,117.6l-34.9,60.3l0,0l-33.2,57.3L1636.1,1839z M1742.7,2023.2l-68.1-117.6l68.1-117.6
			l68.1,117.6L1742.7,2023.2z M1783,1839L1783,1839l-34.9-60.3l68.1-117.6l68.1,117.6l-34.9,60.3l0,0l-33.2,57.3L1783,1839z
			 M1889.7,2023.3l-68.1-117.6l68.1-117.6l68.1,117.6L1889.7,2023.3z M1929.8,1839L1929.8,1839l-34.9-60.3l68.1-117.6l68.1,117.6
			l-34.9,60.3l0,0l-33.2,57.3L1929.8,1839z M2036.5,2023.2l-68.1-117.6l68.1-117.6l68.1,117.6L2036.5,2023.2z M2076.7,1839
			L2076.7,1839l-34.9-60.3l68.1-117.6l68.1,117.6l-34.9,60.3l0,0l-33.2,57.3L2076.7,1839z M2183.4,2023.2l-68.1-117.6l68.1-117.6
			l68.1,117.6L2183.4,2023.2z M2223.6,1839L2223.6,1839l-34.9-60.3l68.1-117.6l68.1,117.6L2290,1839l0,0l-33.2,57.3L2223.6,1839z
			 M2398.3,1905.6l-68.1,117.6l-68.1-117.6l68.1-117.6L2398.3,1905.6z M2398.3,1651.9l-68.1,117.6l-68.1-117.6l68.1-117.6
			L2398.3,1651.9z M2398.3,1398.2l-68.1,117.6l-68.1-117.6l68.1-117.6L2398.3,1398.2z M2398.3,1144.5l-68.1,117.6l-68.1-117.6
			l68.1-117.6L2398.3,1144.5z M2330.3,1008.4l-68.1-117.6l68.1-117.6l68.1,117.6L2330.3,1008.4z"/>
		<path class="st6" d="M1736.2,1990.7c0,0-4.8,42.5-3.2,56.4c0.9,7.5,7,23.2,3.5,30c-3.5,6.8-87.9,4.3-87.9,4.3
			c-4.4-0.2-1.3-3.4,2.3-6.3c6.1-4.7,10.9-7.8,29.9-17.3c1.2-0.6,5.8-3.7,7.4-4.8c4.5-3.1,8.5-7,12.1-11.4
			c6.2-7.3,8.4-44.9,8.4-44.9L1736.2,1990.7z"/>
		<path class="st6" d="M1889.9,1531.6c0,0-8.4,56.4-26.6,90.1c-17.7,32.8-78.3,108.2-101.7,155.8c1.5,29.6-3.1,72.5-8.3,104
			c-5.8,35.8-20.3,147.1-20.3,147.1l-27.8-0.4l-14.6-274.5l87.6-218.8l32.1-70.1L1889.9,1531.6z"/>
		<path class="st6" d="M2058.8,1747.8c0,0,78.8,8.9,91.8,9.2s45.9,47.8,33.3,40.2c-2.9-1.8-12.6-6.7-13.6-6.9c-5-1-92.8-2-92.8-2
			L2058.8,1747.8z"/>
		<path class="st7" d="M2207.9,1828.2l-36.5-37.4c0,0-3.4-17.4-20.7-33.9c2.5-8.3,6.6-15.9,11.8-22.2c1.5-1.7,11.3-13.6,13.1-12.3
			c6.5,4.7,18.9,25.7,32.5,48.6c0,0,15.3,31.7,22.9,54.4S2207.9,1828.2,2207.9,1828.2z"/>
		<path class="st8" d="M1688.4,2053.2c21,8,37,4.6,46.1,1c1.9,7.9,8.4,27.5,6,28.1c-19,4.7-41,12.4-99,8.2c-2.1-0.2-1.4-12.3,0-14.1
			C1645.3,2071.3,1686.7,2054.2,1688.4,2053.2z"/>
		<rect x="217.7" y="2081.4" class="st9" width="2306" height="12"/>
		<line class="st9" x1="2429.7" y1="696.6" x2="2429.7" y2="708.6"/>
		<line class="st9" x1="377.7" y1="708.6" x2="377.7" y2="696.6"/>
		<ellipse class="st10" cx="872.5" cy="363" rx="87.3" ry="104.7"/>
		<path class="st9" d="M786,377c0.3,2.9,0.8,5.8,1.3,8.6c47.7-3.7,93,25.3,116.9,74.9c2.3-1.1,4.5-2.2,6.7-3.5
			C885.5,403.7,837,372.6,786,377L786,377z"/>
		<path class="st9" d="M959.5,372.1c0.2-3,0.3-5.9,0.3-8.9c-56.6,11.6-112.5-24.3-136-87.1c-2,1.7-4,3.4-6,5.3
			C842.8,346.2,900.6,383.2,959.5,372.1z"/>
		<path class="st9" d="M789.1,329.3l153,98c1.1-1.9,2.1-3.8,3.1-5.8L791.4,323C790.6,325.1,789.8,327.2,789.1,329.3z"/>
		<path class="st9" d="M828.9,453.6c0.8,0.6,1.6,1.2,2.5,1.7c0.8,0.5,1.7,1,2.6,1.5l82.2-184.6c-0.8-0.6-1.7-1.2-2.5-1.7
			s-1.7-1-2.6-1.5L828.9,453.6z"/>
		<path class="st11" d="M976.8,548.7C964.6,534,864,485,853.8,480.1c-0.6-5.5-2.3-10.8-5-15.2c-1-1.9-1.4-4.2-1.1-6.5
			c0.6-4.1,0.7-8.3,0.2-12.4c-0.3-3-0.1-6.1,0.7-9c1.3-5.4,2.8-10.6,4.4-15.8c1-3.5,0.7-5.6-1.3-7.2c-2-1.6-4.2-1.4-6.5,0.9
			c-3.2,3.4-5.6,7.8-7,12.7c-1.4,4.6-3,6-7.1,6.3c-2.3,0.2-4.6,0.1-6.9-0.3c-2.3-0.5-4.5-1.5-5.8-4c-2-4.9-4.2-9.7-6.7-14.3l-1.8-4
			c-0.1-0.1-1-2.2-1-2.2c-0.1-0.4-3.8-6.9-5.2-9c-1.2-1.7-2.9-4.5-4.4-6.8c-1.4-2.2-5.3-5.6-5.4-5.8c-1.4-1.9-3.3-3.2-5.5-3.5
			c-0.9-0.1-1.8-0.2-2.4,0.9c-0.5,0.9-0.4,2.1,0.1,3c0.7,1.6,4.9,9.3,4.6,9.5c-1.5-2.1-6.2-8.5-7.7-10.6c-1.9-2.7-4.7-4.4-7.7-4.6
			c-1.2-0.1-2.5-0.3-3.3,1.3c-0.7,1.6,0,2.8,0.8,4c7.6,11.7,15.1,23.4,21.5,36.1c1.1,2.1,2,4.3,2.7,6.6c1.1,4,3.3,7.4,6.3,9.7
			c1.5,1.4,2.9,3,4.1,4.8c2.7,3.9,9.2,20.7,13,31.4c2.3,6.4,5.8,12.1,10.4,16.4c22,20.9,85.4,81.3,91.6,92.7
			c7.5,13.8,34.9,149.1,34.9,149.1l57.3,13.9V717C1014.7,717,989.7,564.1,976.8,548.7z"/>
		<path class="st11" d="M907.5,1351.8l-45.2,22c-4.5,0.9-15.9,2-19.8,3.6c-14.5,6,34,71.1,35.6,51.4c0.1-1.8,2.3-11.7,7.1-14.2
			c7.4-3.9,71.6-36.1,71.6-36.1L907.5,1351.8z"/>
		<path class="st11" d="M886.8,1362.8c2.7,0,128.5-56,128.5-56s41.9-68.2,44.6-69c2.7-0.8,64.3,15.4,64.3,15.4s-7.4,64.1-20.3,69
			s-206,78.7-206,78.7L886.8,1362.8z"/>
		<polygon class="st12" points="1094.8,990.5 1076.5,1265.4 1137.4,1265.4 1147.5,1012.4 		"/>
		<path class="st13" d="M987.7,1253.2v47.1c0,0-141.4-13-166.4-11.4l-8.8,43.8c0,0,193.5,56.8,213.1,51.9
			c19.6-4.9,45.3-135.6,45.3-135.6L987.7,1253.2z"/>
		<polygon class="st8" points="1012.6,1026.3 960.9,1255.2 1072.5,1285.7 1124.2,1034.8 		"/>
		<path class="st14" d="M906.7,783.5c-2.1,4.8,88.7,145.4,100.9,175.9l-15.2,75.5c0,0,74.1,40.2,115.7,30.4
			c41.6-9.7,49.7-67,49.7-67s-48.7-204.5-92.3-238.6c-43.6-34.1-50.7-42.6-50.7-42.6S931.7,726.7,906.7,783.5z"/>
		<path class="st13" d="M936.9,682.8l13.7,62.8c0,0,28.4,15.7,43.5,0.1c12.7-13.1,8.3-29,8.3-29s-20.7-30.1-24.7-48.6
			S936.9,682.8,936.9,682.8z"/>
		<path class="st14" d="M977.8,668.1c-4-18.5-40.9,14.7-40.9,14.7l1.2,5.4c2.2,2.6,4.8,4.6,7.6,6.1c13.4,6.5,30.3,5.7,42.9-0.4
			C983.8,685.2,979.4,675.7,977.8,668.1z"/>
		<path class="st13" d="M898.3,600.4c-1.3,0.1,16.3,74.2,38.9,85.1c22.6,10.9,55,1.1,60.2-19.7c5.8-23.1-22.6-97.7-54-104.6
			C912,554.3,898.3,600.4,898.3,600.4z"/>
		<path class="st9" d="M894,570.5c-8,5.7-17.5,17.1-21,46.1c-4.3,35.5,17.9,60.6,40.4,66.7s28.7,23.5,28.7,23.5l-0.5-10.3
			c-0.5-7.9-2.5-15.5-5.8-22.4c-2-4.2-4.5-8.1-7.5-11.3c-7.8-7.9,2.5-21.5,3-31.8c0.4-7.9-5-22.8-4.6-35.8l2.2-10.9
			c0,0,8-17.2,20.9-20.4C962.8,560.6,923.8,502.1,894,570.5z"/>
		<path class="st13" d="M935.2,643.8c3.3,8.4,2.5,17.2-1.7,19.5c-4.2,2.4-10.3-2.6-13.6-11c-3.3-8.4-2.5-17.2,1.7-19.5
			S931.9,635.3,935.2,643.8z"/>
		<path class="st15" d="M968.4,648.4l19.3-16.3c0,0,4.7,9.2-3.6,16.6C973.9,657.8,968.4,648.4,968.4,648.4z"/>
		<path class="st13" d="M838.4,1289c0,0-48.4-7.1-48.4-7.1c-4.3-1.8-14.7-7.5-18.8-8.4c-15.1-3.3,1,82,10.4,65.7
			c0.8-1.5,6.7-8.9,11.9-8.4c8,0.9,24.4,2.3,24.4,2.3L838.4,1289z"/>
		<path class="st8" d="M781.7,1339.1c0,0-1.8-19.6-1.6-29.4s11.9-20.2,10.3-27.6c-1.8-8-30.4-13.4-30.4-13.4s-19.8,98.2-16.3,127.9
			C745.1,1408.4,765.3,1374.8,781.7,1339.1z"/>
		<path class="st8" d="M878.1,1428.6c0,0-9.5-16.1-13.2-24.8s2.2-24.6-2.2-30c-4.8-6-32,6-32,6s22.3,97.4,37.4,121.4
			C874.1,1510.5,878.1,1469.4,878.1,1428.6z"/>
		<path class="st16" d="M929.4,859.5L929.4,859.5c2.9-3.6,5.8-7.3,8.7-10.9c5.2-8.4,11.3-22.2,14.5-43.4
			c3.1-21.2-5.2-32.8-13.9-39.3c-8.4-6.2-19.2-3.9-25.4,5.3c-14.7,22.2-27.1,42.9-32.6,52.2l0,0c0,0-38.5,62.4-41.2,69
			c-2.3,5.7-14.7,127.2-19.6,173.9c-0.9,5.4-2.3,10.7-4.1,15.7c-4.8,11.6-13.8,19.1-18.6,28.2c-4.8,9.1-19.2,23.8-17.5,28.6
			c0.2,1.3,1.3,2.2,2.4,1.9c0,0,0.1,0,0.1,0c2.6-0.5,15.4-17.8,16.5-17.9s0.2,2.1,0.2,2.1s-17.1,22.4-17.8,27.3
			c-0.6,4.2,2.3,5.4,4.3,4.2c2-1.2,15.8-22.7,17.2-22s-0.9,3.9-0.9,3.9s-19,25.2-18.8,30.8c0.2,4.5,3.4,4.2,6.5,1s19.5-28,21.5-28.2
			s-0.3,3.4-0.3,3.4s-18.1,27.4-18.7,29.9c-0.7,2.9,1.2,5.3,5,2.7c3.8-2.5,18-21.1,19.5-22.8c1.5-1.7,13.7-17.8,14.7-17.8
			c1,0-3.2,11.8-3.4,19.9c-0.1,2.9-0.2,7.4,1.5,9.9c1.1,1.6,3,1.8,4.4,0.5c0.7-0.7,1.1-1.6,1.1-2.7c0.1-2.3,0.4-5.4,0.9-6.7
			c0.9-2.1,2.3-6.9,3.6-11c1.3-4.1,3.4-10.9,4.3-14.3c0.8-2.9,1.4-15.4,1.1-21.7c-0.4-5.7-0.3-11.4,0.2-17.1
			c2-12.9,7.5-37.5,7.5-37.5s24.1-121.9,25.6-128.4l8.6-13.5C886.4,915,906.6,888.3,929.4,859.5L929.4,859.5z"/>
		<rect x="1343.7" y="305.4" class="st17" width="33" height="1777.2"/>
		<rect x="1043.7" y="147" class="st18" width="654" height="486"/>
		<rect x="1030.7" y="147" class="st19" width="654" height="486"/>
		<path class="st20" d="M1654.7,612.6h-593V166.2h593V612.6z M1072.7,598.2h570V180.6h-570V598.2z"/>
		<path class="st20" d="M1493.7,532.2h-272V324.6h272V532.2z M1233.7,519h249V339h-249L1233.7,519z"/>
		<path class="st21" d="M1464.1,576.1c0.4-1.2-0.1-2.6-1.2-3.1c-1-0.5-2.2,0.2-2.6,1.4l-37.6,121.3l-22-71.1l15.1-48.5
			c0.4-1.2-0.1-2.6-1.2-3.1c-1-0.5-2.2,0.2-2.6,1.4l-13.4,43.3l-13.4-43.3c-0.4-1.2-1.5-1.9-2.6-1.4c-1,0.5-1.6,1.9-1.2,3.1l15,48.5
			l-22,71.1l-22-71.1l15-48.5c0.4-1.3-0.1-2.6-1.2-3.1c-1-0.5-2.2,0.2-2.6,1.4l-13.4,43.3l-13.4-43.3c-0.4-1.2-1.5-1.9-2.6-1.4
			c-1,0.5-1.6,1.9-1.2,3.1l15,48.5l-22,71.1l-22-71.1l15.1-48.5c0.4-1.2-0.1-2.6-1.2-3.1c-1-0.5-2.2,0.2-2.6,1.4l-13.4,43.3
			l-13.4-43.3c-0.4-1.3-1.6-1.9-2.6-1.4c-1,0.5-1.6,1.9-1.2,3.1l15,48.6l-22,71.1L1240,574.4c-0.4-1.3-1.6-1.9-2.6-1.4
			c-1,0.5-1.6,1.9-1.2,3.1l79,254.7c0.4,1.2,1.5,1.9,2.6,1.4c1-0.5,1.6-1.9,1.2-3.1l0,0l-15.1-48.6c0-0.1,0.1-0.1,0.1-0.2l22-70.8
			l22,71.1l-15,48.5c-0.4,1.2,0.1,2.6,1.2,3.1c1,0.5,2.2-0.2,2.6-1.4l13.4-43.3l13.4,43.3c0.4,1.3,1.5,1.9,2.6,1.4
			c1-0.5,1.6-1.9,1.2-3.1l-15-48.5l22-71.1l21.9,70.7c0,0.1,0.1,0.2,0.1,0.2l-15.1,48.6c-0.4,1.2,0.1,2.6,1.2,3.1
			c1,0.5,2.2-0.2,2.6-1.4l39.4-127.1c0,0,0-0.1,0-0.2L1464.1,576.1z M1301.7,773.6l-22-71.1l22-71.1l22,71.1L1301.7,773.6z
			 M1350,773.6l-22-71.1l22-71.1l22,71.1L1350,773.6z M1376.4,702.6l22-71.1l22,71.1l-22,71.1L1376.4,702.6z"/>
		<path class="st22" d="M1481.2,576.1c0.4-1.2-0.1-2.6-1.2-3.1c-1-0.5-2.2,0.2-2.6,1.4l-37.6,121.3l-22-71.1l15-48.5
			c0.4-1.2-0.1-2.6-1.2-3.1c-1-0.5-2.2,0.2-2.6,1.4l-13.4,43.3l-13.4-43.3c-0.4-1.2-1.5-1.9-2.6-1.4c-1,0.5-1.6,1.9-1.2,3.1
			l15.1,48.6l-22,71.1l-22-71.1l15.1-48.5c0.4-1.3-0.1-2.6-1.2-3.1c-1-0.5-2.2,0.2-2.6,1.4l-13.4,43.3l-13.4-43.3
			c-0.4-1.2-1.5-1.9-2.6-1.4c-1,0.5-1.6,1.9-1.2,3.1l15,48.5l-22,71.1l-22-71.1l15-48.5c0.4-1.2-0.1-2.6-1.2-3.1
			c-1-0.5-2.2,0.2-2.6,1.4l-13.4,43.3l-13.4-43.3c-0.4-1.3-1.6-1.9-2.6-1.4c-1,0.5-1.6,1.9-1.2,3.1l15,48.5l-22,71.1l-37.7-121.3
			c-0.4-1.2-1.5-1.9-2.6-1.4c-1,0.5-1.6,1.9-1.2,3.1l79,254.7c0.4,1.2,1.5,1.9,2.6,1.4c1-0.5,1.6-1.9,1.2-3.1l0,0l-15.1-48.6
			c0-0.1,0.1-0.1,0.1-0.2l22-70.8l22,71.1l-15,48.5c-0.4,1.2,0.1,2.6,1.2,3.1c1,0.5,2.2-0.2,2.6-1.4l13.4-43.3l13.4,43.3
			c0.4,1.3,1.5,1.9,2.6,1.4c1-0.5,1.6-1.9,1.2-3.1l-15.1-48.5l22-71.1l21.9,70.7c0,0.1,0.1,0.2,0.1,0.2l-15.1,48.6
			c-0.4,1.2,0.1,2.6,1.2,3.1c1,0.5,2.2-0.2,2.6-1.4l39.4-127.1c0,0,0-0.1,0-0.2L1481.2,576.1z M1319,773.6l-22-71.1l22-71.1l22,71.1
			L1319,773.6z M1367.3,773.6l-22-71.1l22-71.1l22,71.1L1367.3,773.6z M1393.7,702.6l22-71.1l22,71.1l-22,71.1L1393.7,702.6z"/>
		<path class="st23" d="M1226.6,567h267c0.5,0,1,0.5,1,1.2v8.4c0,0.6-0.4,1.2-1,1.2h-267c-0.5,0-1-0.5-1-1.2v-8.4
			C1225.7,567.6,1226.1,567,1226.6,567z"/>
	</g>
</g>
</svg>
